<svg xmlns="http://www.w3.org/2000/svg" xmlns:xlink="http://www.w3.org/1999/xlink" width="500" zoomAndPan="magnify" viewBox="0 0 375 374.999991" height="500" preserveAspectRatio="xMidYMid meet" version="1.0"><defs><clipPath id="91fc3d31a1"><path d="M 6.5625 194 L 41 194 L 41 228 L 6.5625 228 Z M 6.5625 194 " clip-rule="nonzero"/></clipPath><clipPath id="15d6502474"><path d="M 335 194 L 368.8125 194 L 368.8125 228 L 335 228 Z M 335 194 " clip-rule="nonzero"/></clipPath><clipPath id="a406743549"><path d="M 6.5625 113 L 368.8125 113 L 368.8125 181 L 6.5625 181 Z M 6.5625 113 " clip-rule="nonzero"/></clipPath></defs><path fill="#ffffff" d="M 87.136719 210.9375 L 87.136719 194.195312 L 53.621094 194.195312 L 53.621094 210.9375 C 53.621094 220.171875 61.136719 227.679688 70.378906 227.679688 C 79.621094 227.679688 87.136719 220.171875 87.136719 210.9375 " fill-opacity="1" fill-rule="nonzero"/><g clip-path="url(#91fc3d31a1)"><path fill="#ffffff" d="M 40.214844 210.9375 L 40.214844 194.195312 L 6.695312 194.195312 L 6.695312 210.9375 C 6.695312 220.171875 14.210938 227.679688 23.453125 227.679688 C 32.699219 227.679688 40.214844 220.171875 40.214844 210.9375 " fill-opacity="1" fill-rule="nonzero"/></g><path fill="#ffffff" d="M 227.90625 267.855469 L 46.917969 267.855469 L 46.917969 314.730469 L 227.90625 314.730469 L 227.90625 267.855469 " fill-opacity="1" fill-rule="nonzero"/><path fill="#ffffff" d="M 241.3125 328.125 L 33.511719 328.125 L 33.511719 254.464844 L 241.3125 254.464844 Z M 234.609375 229.640625 C 229.085938 236.546875 220.679688 241.070312 211.148438 241.070312 C 201.617188 241.070312 193.210938 236.546875 187.6875 229.640625 C 182.164062 236.546875 173.757812 241.070312 164.226562 241.070312 C 154.695312 241.070312 146.289062 236.546875 140.765625 229.640625 C 135.238281 236.546875 126.832031 241.070312 117.300781 241.070312 C 107.769531 241.070312 99.367188 236.546875 93.839844 229.640625 C 88.316406 236.546875 79.910156 241.070312 70.378906 241.070312 C 60.847656 241.070312 52.441406 236.546875 46.917969 229.640625 C 41.390625 236.546875 32.988281 241.070312 23.453125 241.070312 C 22.304688 241.070312 21.230469 240.863281 20.101562 240.730469 L 20.101562 348.214844 L 254.722656 348.214844 L 254.722656 240.730469 C 246.578125 239.816406 239.480469 235.734375 234.609375 229.640625 " fill-opacity="1" fill-rule="nonzero"/><path fill="#ffffff" d="M 20.101562 375 L 254.722656 375 L 254.722656 361.605469 L 20.101562 361.605469 L 20.101562 375 " fill-opacity="1" fill-rule="nonzero"/><path fill="#ffffff" d="M 187.6875 53.570312 C 195.070312 53.570312 201.09375 47.554688 201.09375 40.179688 C 201.09375 32.800781 195.070312 26.785156 187.6875 26.785156 C 180.304688 26.785156 174.28125 32.800781 174.28125 40.179688 C 174.28125 47.554688 180.304688 53.570312 187.6875 53.570312 " fill-opacity="1" fill-rule="nonzero"/><path fill="#ffffff" d="M 226.335938 100.445312 L 335.160156 100.445312 L 335.160156 87.054688 L 234.609375 87.054688 L 234.609375 86.085938 L 226.335938 100.445312 " fill-opacity="1" fill-rule="nonzero"/><path fill="#ffffff" d="M 187.6875 13.394531 C 202.480469 13.394531 214.5 25.398438 214.5 40.179688 C 214.5 54.957031 202.480469 66.964844 187.6875 66.964844 C 172.894531 66.964844 160.875 54.957031 160.875 40.179688 C 160.875 25.398438 172.894531 13.394531 187.6875 13.394531 Z M 187.6875 140.597656 L 229.84375 67.539062 C 232.933594 61.757812 234.609375 55.0625 234.609375 48.417969 L 234.609375 43.527344 C 234.609375 19.515625 213.558594 0 187.6875 0 C 161.816406 0 140.765625 19.515625 140.765625 43.527344 L 140.765625 48.417969 C 140.765625 55.0625 142.441406 61.757812 145.632812 67.722656 L 187.6875 140.597656 " fill-opacity="1" fill-rule="nonzero"/><path fill="#ffffff" d="M 141.3125 87.054688 L 40.214844 87.054688 L 40.214844 100.445312 L 149.039062 100.445312 L 141.3125 87.054688 " fill-opacity="1" fill-rule="nonzero"/><path fill="#ffffff" d="M 134.0625 210.9375 L 134.0625 194.195312 L 100.542969 194.195312 L 100.542969 210.9375 C 100.542969 220.171875 108.058594 227.679688 117.300781 227.679688 C 126.546875 227.679688 134.0625 220.171875 134.0625 210.9375 " fill-opacity="1" fill-rule="nonzero"/><g clip-path="url(#15d6502474)"><path fill="#ffffff" d="M 335.160156 210.9375 C 335.160156 220.171875 342.675781 227.679688 351.921875 227.679688 C 361.164062 227.679688 368.679688 220.171875 368.679688 210.9375 L 368.679688 194.195312 L 335.160156 194.195312 L 335.160156 210.9375 " fill-opacity="1" fill-rule="nonzero"/></g><path fill="#ffffff" d="M 180.984375 210.9375 L 180.984375 194.195312 L 147.46875 194.195312 L 147.46875 210.9375 C 147.46875 220.171875 154.980469 227.679688 164.226562 227.679688 C 173.46875 227.679688 180.984375 220.171875 180.984375 210.9375 " fill-opacity="1" fill-rule="nonzero"/><path fill="#ffffff" d="M 294.941406 301.339844 L 281.535156 301.339844 L 281.535156 287.945312 L 294.941406 287.945312 Z M 328.457031 229.640625 C 322.933594 236.546875 314.527344 241.070312 304.996094 241.070312 C 295.464844 241.070312 287.058594 236.546875 281.535156 229.640625 C 278.050781 233.984375 273.46875 237.332031 268.128906 239.214844 L 268.128906 375 L 355.273438 375 L 355.273438 240.730469 C 354.171875 240.863281 353.070312 241.070312 351.921875 241.070312 C 342.386719 241.070312 333.984375 236.546875 328.457031 229.640625 " fill-opacity="1" fill-rule="nonzero"/><g clip-path="url(#a406743549)"><path fill="#ffffff" d="M 337.726562 113.839844 L 218.613281 113.839844 L 187.6875 167.4375 L 156.789062 113.839844 L 37.648438 113.839844 L 6.695312 175.675781 L 6.695312 180.804688 L 368.679688 180.804688 L 368.679688 175.675781 L 337.726562 113.839844 " fill-opacity="1" fill-rule="nonzero"/></g><path fill="#ffffff" d="M 321.753906 210.9375 L 321.753906 194.195312 L 288.238281 194.195312 L 288.238281 210.9375 C 288.238281 220.171875 295.753906 227.679688 304.996094 227.679688 C 314.238281 227.679688 321.753906 220.171875 321.753906 210.9375 " fill-opacity="1" fill-rule="nonzero"/><path fill="#ffffff" d="M 274.832031 210.9375 L 274.832031 194.195312 L 241.3125 194.195312 L 241.3125 210.9375 C 241.3125 220.171875 248.828125 227.679688 258.074219 227.679688 C 267.316406 227.679688 274.832031 220.171875 274.832031 210.9375 " fill-opacity="1" fill-rule="nonzero"/><path fill="#ffffff" d="M 227.90625 210.9375 L 227.90625 194.195312 L 194.390625 194.195312 L 194.390625 210.9375 C 194.390625 220.171875 201.90625 227.679688 211.148438 227.679688 C 220.394531 227.679688 227.90625 220.171875 227.90625 210.9375 " fill-opacity="1" fill-rule="nonzero"/></svg>